<svg width="512" height="512" viewBox="0 0 512 512" fill="none" xmlns="http://www.w3.org/2000/svg">
<path d="M147.204 295.235C121.996 295.127 107.677 324.306 108.721 344.84C58.1048 391.124 92.5151 452.002 146.364 453.566C178.447 453.566 189.052 423.039 189.052 390.518C189.032 372.695 181.05 355.841 167.343 344.679C168.394 341.114 168.931 337.414 168.938 333.694C168.938 312.352 168.259 295.235 147.204 295.235Z" fill="#A05A2C"/>
<path d="M329.692 308.127L328.698 313.575C328.151 316.571 327.182 322.755 326.547 327.315C325.583 334.224 324.537 336.113 320.265 338.642C315.267 341.601 314.939 341.587 307.214 338.123C290.209 330.498 290.709 330.387 283.029 343.491C282.189 344.924 281.453 346.183 280.815 347.294C276.344 355.068 276.623 355.639 279.271 358.605C280.965 360.502 285.714 364.551 289.823 367.608C296.427 372.52 297.275 373.879 297.127 379.316C296.978 384.749 295.772 386.442 286.793 393.806C281.202 398.393 276.625 402.554 276.625 403.053C276.625 404.729 288.447 425.418 289.939 426.352C290.749 426.86 296.831 425.058 303.45 422.344C315.145 417.549 315.625 417.49 320.438 420.267C324.535 422.631 325.591 424.556 326.547 431.414C327.183 435.974 328.152 442.161 328.699 445.157L329.694 450.6L343.593 450.6H357.497L359.217 444.316C360.165 440.859 360.952 436.145 360.97 433.84C361.026 426.41 362.69 422.96 367.585 420.112C372.204 417.426 372.788 417.498 383.618 422.181C389.8 424.854 395.627 427.063 396.568 427.088C397.508 427.113 401.008 422.417 404.343 416.655C407.678 410.893 410.421 405.05 410.438 403.667C410.454 402.284 406.072 397.759 400.697 393.61C391.984 386.884 390.914 385.403 390.825 379.942C390.735 374.431 391.718 373.005 400.64 365.696C406.094 361.228 410.557 356.541 410.56 355.279C410.566 353.572 401.619 336.846 398.063 331.911C397.856 331.625 391.907 333.661 384.837 336.444C372.559 341.276 371.777 341.387 367.415 338.775C362.741 335.976 361.024 332.283 360.968 324.886C360.95 322.581 360.164 317.87 359.217 314.413L357.494 308.127L343.591 308.125L329.692 308.125V308.127ZM338.027 358.183C343.552 356.683 349.438 357.469 354.391 360.368C359.344 363.267 362.958 368.042 364.438 373.642C365.918 379.242 365.144 385.208 362.284 390.229C359.425 395.25 354.715 398.914 349.191 400.415C346.455 401.159 343.602 401.348 340.794 400.974C337.986 400.599 335.278 399.667 332.825 398.232C330.373 396.796 328.223 394.885 326.499 392.608C324.775 390.33 323.51 387.73 322.777 384.957C322.044 382.184 321.857 379.292 322.226 376.445C322.596 373.599 323.515 370.854 324.931 368.368C326.347 365.882 328.233 363.703 330.48 361.955C332.727 360.207 335.291 358.926 338.027 358.183Z" fill="#666666"/>
<path d="M262.618 425.125H182.26V446.204H262.618V425.125Z" fill="white"/>
<path d="M248.047 472.215L248.121 472.216L248.4 439.094L248.326 439.094L248.271 445.611L181.737 444.998C200.023 455.091 213.297 470.457 248.123 463.149L248.047 472.215Z" fill="#DE8787"/>
<path d="M247.683 434.846L305.775 434.188C306.132 446.365 270.168 456.396 247.683 457.19V434.846Z" fill="#4D4D4D"/>
<path d="M247.651 295.055V435.42H247.681V434.841L305.773 434.182C306.13 446.352 270.213 456.378 247.725 457.183V468.543H247.651V502.048C284.244 502.464 317.708 487.928 349.249 464.203V295.055H247.651Z" fill="#B3B3B3"/>
<path d="M247.652 295.055V435.132L189.559 435.316C194.444 451.313 225.391 458.13 247.652 457.213V502.048C216.351 501.691 182.769 490.433 146.054 464.203V295.055H247.652Z" fill="#FFE1E1"/>
<path d="M196.095 365.585C206.168 365.585 214.334 357.308 214.334 347.097C214.334 336.887 206.168 328.609 196.095 328.609C186.022 328.609 177.856 336.887 177.856 347.097C177.856 357.308 186.022 365.585 196.095 365.585Z" fill="#333333"/>
<path d="M204.082 347.674C207.254 347.674 209.825 345.068 209.825 341.853C209.825 338.638 207.254 336.031 204.082 336.031C200.91 336.031 198.339 338.638 198.339 341.853C198.339 345.068 200.91 347.674 204.082 347.674Z" fill="white"/>
<path d="M294.126 365.585C304.199 365.585 312.364 357.308 312.364 347.097C312.364 336.887 304.199 328.609 294.126 328.609C284.053 328.609 275.887 336.887 275.887 347.097C275.887 357.308 284.053 365.585 294.126 365.585Z" fill="#1FDF1F"/>
<path d="M300.909 347.143C304.081 347.143 306.652 344.537 306.652 341.322C306.652 338.106 304.081 335.5 300.909 335.5C297.737 335.5 295.166 338.106 295.166 341.322C295.166 344.537 297.737 347.143 300.909 347.143Z" fill="white"/>
<path d="M247.543 342.088L253.464 341.945L271.767 414.1L247.727 414.222L247.543 342.088Z" fill="#666666"/>
<path d="M247.597 342.086C242.905 343.259 240.551 345.7 239.071 349.144C229.799 370.708 208.057 413.94 247.595 414.22L247.597 342.086Z" fill="#FFCFCF"/>
<path d="M247.651 251.938V283.947H345.596V251.938H247.651Z" fill="#808080"/>
<path d="M247.652 251.938H149.707V283.947H247.652V251.938Z" fill="#B3B3B3"/>
<path d="M146 373.128V296H349V373.128C247.5 395.915 247.5 395.331 146 373.128Z" fill="#3737FF"/>
<path d="M349.257 373.128C298.459 384.518 273.051 390.069 247.652 389.999V296H349.257V373.128Z" fill="#0000FF"/>
<path d="M256.416 9C253.486 9.0237 250.559 9.226 247.652 9.60583C247.624 75.2205 247.652 180.919 247.652 256.512H350.477V204.919C350.819 202.72 351.123 200.525 351.307 198.781L352.054 191.718L358.465 189.162L364.877 186.604L374.225 194.162C379.366 198.319 384.572 201.722 385.793 201.725C388.846 201.735 410.694 179.23 410.694 176.076C410.694 174.742 407.368 169.389 403.305 164.181L395.919 154.713L398.248 149.271C399.529 146.278 400.91 143.456 401.316 143.002C401.722 142.547 407.763 141.231 414.74 140.077L427.428 137.98L427.748 120.524C427.939 110.099 427.609 102.601 426.926 101.909C426.297 101.271 420.282 99.9135 413.561 98.8918L401.344 97.0362L398.649 90.3219L395.959 83.6096L403.327 74.0535C407.379 68.7975 410.694 63.7146 410.694 62.7584C410.694 60.7133 387.796 36.795 385.838 36.795C385.104 36.795 379.978 40.2516 374.449 44.4793L364.396 52.1677L358.237 49.5794L352.272 47.0757C352.207 47.0454 352.141 47.0151 352.076 46.985L350.179 34.6434C349.136 27.8524 347.721 21.6129 347.034 20.7741C346.073 19.5999 337.953 19.0585 329.831 19.1096C321.709 19.1607 313.582 19.801 312.61 20.9874C311.915 21.836 310.715 26.8912 309.761 32.673C295.981 17.6346 276.665 9.06264 256.416 9Z" fill="#CCCCCC"/>
<path d="M247.651 278.367V295.278H350.477V278.367H247.651Z" fill="#CCCCCC"/>
<path d="M247.652 9.60156C237.703 10.8259 228.109 14.1105 219.465 19.2513C210.821 24.3922 203.312 31.2796 197.405 39.4857C189.46 36.5477 181.073 35.0291 172.617 34.9974C153.227 34.9978 134.631 42.8058 120.921 56.7038C107.21 70.6018 99.5076 89.4515 99.5078 109.106C99.5103 123.716 103.773 137.999 111.76 150.161C119.748 162.322 131.103 171.819 144.4 177.458V256.508H247.652V9.60156Z" fill="#E6E6E6"/>
<path d="M247.651 278.367H144.399V295.278H247.651V278.367Z" fill="#E6E6E6"/>
<path d="M149.062 295.109C139.308 295.109 125.418 307.275 125.625 322.021C152.401 322.914 137.859 338.615 180.076 338.615C203.654 338.614 232.439 319.239 232.438 295.34C232.437 295.301 232.434 295.261 232.433 295.222L149.062 295.109Z" fill="#D38D5F"/>
<path d="M349.437 295.531C359.191 295.531 373.08 307.697 372.874 322.443C346.098 323.335 360.64 339.037 318.423 339.037C294.845 339.036 266.06 319.661 266.061 295.762C266.062 295.722 266.065 295.683 266.066 295.644L349.437 295.531Z" fill="#4D4D4D"/>
</svg>
