<svg width="512" height="512" viewBox="0 0 512 512" fill="none" xmlns="http://www.w3.org/2000/svg">
<g clip-path="url(#clip0_1204_532)">
<path d="M171.633 434.633C171.159 447.1 216.224 457.471 247.74 459.273V459.51C248.44 459.483 249.189 459.418 249.914 459.372C250.929 459.418 251.977 459.483 252.957 459.51V459.14C275.372 457.013 306.163 446.827 305.832 434.633L249.914 435.317L171.633 434.633Z" fill="#4D4D4D"/>
<path d="M329.75 308.572L328.756 314.02C328.21 317.016 327.241 323.2 326.605 327.76C325.642 334.669 324.596 336.558 320.324 339.087C315.325 342.046 314.998 342.032 307.273 338.568C290.267 330.943 290.768 330.832 283.088 343.937C282.248 345.369 281.512 346.629 280.873 347.739C276.403 355.513 276.681 356.084 279.329 359.05C281.023 360.947 285.773 364.996 289.882 368.053C296.486 372.966 297.334 374.324 297.185 379.762C297.037 385.194 295.831 386.887 286.852 394.252C281.26 398.838 276.684 402.999 276.684 403.499C276.684 405.174 288.506 425.863 289.997 426.797C290.808 427.305 296.889 425.503 303.508 422.789C315.204 417.995 315.684 417.935 320.497 420.713C324.593 423.076 325.65 425.001 326.606 431.859C327.242 436.419 328.211 442.606 328.757 445.602L329.753 451.046L343.651 451.046H357.555L359.276 444.761C360.223 441.304 361.011 436.59 361.029 434.285C361.085 426.856 362.749 423.405 367.644 420.557C372.262 417.871 372.847 417.943 383.677 422.626C389.859 425.299 395.686 427.508 396.626 427.533C397.567 427.558 401.066 422.862 404.402 417.1C407.737 411.339 410.48 405.495 410.496 404.112C410.513 402.73 406.13 398.204 400.756 394.055C392.042 387.33 390.972 385.849 390.883 380.388C390.793 374.876 391.776 373.451 400.699 366.141C406.152 361.674 410.616 356.986 410.619 355.724C410.625 354.017 401.678 337.291 398.121 332.356C397.915 332.07 391.965 334.106 384.896 336.889C372.618 341.722 371.836 341.832 367.474 339.22C362.799 336.421 361.083 332.728 361.026 325.331C361.009 323.027 360.223 318.315 359.275 314.858L357.553 308.572L343.649 308.57L329.75 308.57V308.572ZM338.086 358.628C343.61 357.128 349.497 357.914 354.449 360.814C359.402 363.713 363.016 368.487 364.496 374.087C365.977 379.687 365.202 385.654 362.343 390.675C359.484 395.696 354.774 399.36 349.25 400.861C346.514 401.604 343.661 401.794 340.853 401.419C338.045 401.044 335.337 400.113 332.884 398.677C330.431 397.242 328.281 395.331 326.557 393.053C324.833 390.775 323.569 388.176 322.836 385.402C322.102 382.629 321.915 379.737 322.285 376.891C322.655 374.044 323.574 371.3 324.99 368.813C326.406 366.327 328.291 364.148 330.538 362.4C332.785 360.653 335.35 359.371 338.086 358.628Z" fill="#666666"/>
<path d="M165.896 308.572L166.89 314.02C167.437 317.016 168.405 323.2 169.041 327.76C170.004 334.669 171.05 336.558 175.323 339.087C180.321 342.046 180.648 342.032 188.374 338.568C205.379 330.943 204.878 330.832 212.559 343.937C213.398 345.369 214.134 346.629 214.773 347.739C219.244 355.513 218.965 356.084 216.317 359.05C214.623 360.947 209.874 364.996 205.765 368.053C199.16 372.966 198.312 374.324 198.461 379.762C198.61 385.194 199.815 386.887 208.794 394.252C214.386 398.838 218.963 402.999 218.963 403.499C218.963 405.174 207.14 425.863 205.649 426.797C204.839 427.305 198.757 425.503 192.138 422.789C180.442 417.995 179.963 417.935 175.149 420.713C171.053 423.076 169.997 425.001 169.041 431.859C168.405 436.419 167.436 442.606 166.889 445.602L165.894 451.046L151.995 451.046H138.091L136.37 444.761C135.423 441.304 134.635 436.59 134.618 434.285C134.561 426.856 132.898 423.405 128.002 420.557C123.384 417.871 122.8 417.943 111.969 422.626C105.788 425.299 99.9606 427.508 99.02 427.533C98.0793 427.558 94.5801 422.862 91.2448 417.1C87.9095 411.339 85.1668 405.495 85.1502 404.112C85.1336 402.73 89.516 398.204 94.8905 394.055C103.604 387.33 104.674 385.849 104.763 380.388C104.853 374.876 103.87 373.451 94.9475 366.141C89.494 361.674 85.0307 356.986 85.0273 355.724C85.0213 354.017 93.9688 337.291 97.5251 332.356C97.7316 332.07 103.681 334.106 110.751 336.889C123.028 341.722 123.811 341.832 128.173 339.22C132.847 336.421 134.564 332.728 134.62 325.331C134.637 323.027 135.424 318.315 136.371 314.858L138.094 308.572L151.997 308.57L165.896 308.57L165.896 308.572ZM157.56 358.628C152.036 357.128 146.15 357.914 141.197 360.814C136.244 363.713 132.63 368.487 131.15 374.087C129.67 379.687 130.444 385.654 133.303 390.675C136.163 395.696 140.872 399.36 146.397 400.861C149.132 401.604 151.986 401.794 154.794 401.419C157.602 401.044 160.309 400.113 162.762 398.677C165.215 397.242 167.365 395.331 169.089 393.053C170.813 390.775 172.078 388.176 172.811 385.402C173.544 382.629 173.731 379.737 173.361 376.891C172.992 374.044 172.073 371.3 170.657 368.813C169.24 366.327 167.355 364.148 165.108 362.4C162.861 360.653 160.296 359.371 157.56 358.628Z" fill="#666666"/>
<path d="M146.338 295.5V464.648C177.814 488.324 211.206 502.847 247.711 502.492C247.786 502.491 247.86 502.493 247.936 502.492C284.441 502.847 317.832 488.324 349.309 464.648V295.5H247.936H247.711H146.338ZM189.814 434.627L247.711 435.283V435.865H247.74V435.285H247.824H247.906V435.865H247.936V435.283L305.832 434.627C306.189 446.79 270.315 456.812 247.824 457.627C225.334 456.812 189.457 446.79 189.814 434.627Z" fill="#B3B3B3"/>
<path d="M294.184 366.03C304.257 366.03 312.423 357.753 312.423 347.542C312.423 337.332 304.257 329.055 294.184 329.055C284.111 329.055 275.945 337.332 275.945 347.542C275.945 357.753 284.111 366.03 294.184 366.03Z" fill="#1FDF1F"/>
<path d="M300.968 347.588C304.14 347.588 306.711 344.982 306.711 341.767C306.711 338.552 304.14 335.945 300.968 335.945C297.796 335.945 295.225 338.552 295.225 341.767C295.225 344.982 297.796 347.588 300.968 347.588Z" fill="white"/>
<path d="M242.125 342.391L223.82 414.545L247.785 414.668H247.861L271.826 414.545L253.523 342.391L247.824 342.527L242.125 342.391Z" fill="#666666"/>
<path d="M201.462 366.03C211.535 366.03 219.701 357.753 219.701 347.542C219.701 337.332 211.535 329.055 201.462 329.055C191.389 329.055 183.224 337.332 183.224 347.542C183.224 357.753 191.389 366.03 201.462 366.03Z" fill="#1FDF1F"/>
<path d="M208.245 347.588C211.417 347.588 213.988 344.982 213.988 341.767C213.988 338.552 211.417 335.945 208.245 335.945C205.073 335.945 202.502 338.552 202.502 341.767C202.502 344.982 205.073 347.588 208.245 347.588Z" fill="white"/>
<path d="M149.992 252.383V284.393H247.711H247.936H345.654V252.383H247.936H247.711H149.992Z" fill="#808080"/>
<path d="M239.172 9.44531C229.155 9.47627 219.251 11.5935 210.075 15.6655C200.898 19.7376 192.645 25.6777 185.828 33.1172C184.874 27.3354 183.673 22.2802 182.979 21.4316C182.007 20.2452 173.88 19.6058 165.758 19.5547C157.635 19.5036 149.516 20.0445 148.555 21.2188C147.868 22.0575 146.452 28.2969 145.408 35.0879L143.512 47.4297C143.447 47.4595 143.381 47.4895 143.316 47.5195L137.352 50.0234L131.191 52.6133L121.139 44.9238C115.609 40.6962 110.485 37.2402 109.75 37.2402C107.792 37.2402 84.8945 61.158 84.8945 63.2031C84.8945 64.1593 88.2096 69.242 92.2617 74.498L99.6289 84.0547L96.9394 90.7676L94.2441 97.4805L82.0273 99.3359C75.3064 100.358 69.2909 101.716 68.6621 102.354C67.9794 103.046 67.6484 110.544 67.8398 120.969L68.1601 138.424L80.8476 140.521C87.8255 141.676 93.8658 142.993 94.2715 143.447C94.6771 143.902 96.0591 146.722 97.3398 149.715L99.6699 155.158L92.2832 164.625C88.2206 169.833 84.8945 175.188 84.8945 176.521C84.8945 179.676 106.741 202.18 109.795 202.17C111.016 202.166 116.222 198.763 121.363 194.605L130.711 187.049L137.123 189.607L143.535 192.162L144.281 199.225C144.466 200.969 144.77 203.164 145.111 205.363V256.957H247.711H247.936H350.535V205.363C350.877 203.164 351.181 200.969 351.365 199.225L352.111 192.162L358.523 189.607L364.936 187.049L374.283 194.605C379.425 198.763 384.631 202.166 385.852 202.17C388.905 202.18 410.752 179.676 410.752 176.521C410.752 175.188 407.426 169.833 403.363 164.625L395.979 155.158L398.307 149.715C399.587 146.722 400.969 143.902 401.375 143.447C401.781 142.993 407.821 141.676 414.799 140.521L427.486 138.424L427.807 120.969C427.998 110.544 427.667 103.046 426.984 102.354C426.356 101.716 420.34 100.358 413.619 99.3359L401.402 97.4805L398.707 90.7676L396.018 84.0547L403.387 74.498C407.439 69.242 410.752 64.1593 410.752 63.2031C410.752 61.158 387.854 37.2402 385.896 37.2402C385.162 37.2402 380.037 40.6962 374.508 44.9238L364.455 52.6133L358.295 50.0234L352.33 47.5195C352.265 47.4895 352.2 47.4595 352.135 47.4297L350.238 35.0879C349.195 28.2969 347.779 22.0575 347.092 21.2188C346.13 20.0445 338.011 19.5036 329.889 19.5547C321.766 19.6058 313.639 20.2452 312.668 21.4316C311.973 22.2802 310.772 27.3354 309.818 33.1172C303.001 25.6777 294.748 19.7376 285.572 15.6655C276.396 11.5935 266.492 9.47627 256.475 9.44531C253.582 9.46895 250.694 9.66656 247.824 10.0371C244.954 9.66648 242.065 9.46887 239.172 9.44531Z" fill="#CCCCCC"/>
<path d="M247.71 278.812V295.724H350.535V278.812H247.71Z" fill="#CCCCCC"/>
<path d="M247.937 278.812V295.724H145.111V278.812H247.937Z" fill="#CCCCCC"/>
<path d="M146.113 372.854V295.727H348.115V372.854C247.114 395.642 247.114 395.058 146.113 372.854Z" fill="#3737FF"/>
<path d="M348.115 372.854C297.944 384.245 272.851 389.795 247.766 389.726V295.727H348.115V372.854Z" fill="#0000FF"/>
<path d="M349.496 295.977C359.249 295.977 373.139 308.143 372.932 322.888C346.157 323.781 360.698 339.482 318.482 339.482C294.904 339.481 266.119 320.107 266.119 296.207C266.12 296.168 266.123 296.129 266.124 296.089L349.496 295.977Z" fill="#4D4D4D"/>
<path d="M146.151 295.977C136.397 295.977 122.507 308.143 122.714 322.888C149.49 323.781 134.948 339.482 177.165 339.482C200.742 339.481 229.528 320.107 229.527 296.207C229.526 296.168 229.523 296.129 229.522 296.089L146.151 295.977Z" fill="#4D4D4D"/>
</g>
<defs>
<clipPath id="clip0_1204_532">
<rect width="512" height="512" fill="white"/>
</clipPath>
</defs>
</svg>
