<svg width="512" height="512" viewBox="0 0 512 512" fill="none" xmlns="http://www.w3.org/2000/svg">
<g clip-path="url(#clip0_1204_552)">
<path d="M346.967 295.68C372.175 295.572 386.494 324.751 385.45 345.285C436.066 391.57 401.656 452.448 347.807 454.011C315.724 454.011 305.119 423.484 305.119 390.963C305.139 373.141 313.121 356.287 326.827 345.124C325.777 341.56 325.24 337.86 325.233 334.139C325.233 312.797 325.912 295.68 346.967 295.68Z" fill="#A05A2C"/>
<path d="M262.676 425.57H182.318V446.65H262.676V425.57Z" fill="white"/>
<path d="M147.262 295.68C122.054 295.572 107.736 324.751 108.779 345.285C58.1634 391.57 92.5737 452.448 146.422 454.011C178.506 454.011 189.11 423.484 189.11 390.963C189.091 373.141 181.109 356.287 167.402 345.124C168.452 341.56 168.989 337.86 168.996 334.139C168.996 312.797 168.317 295.68 147.262 295.68Z" fill="#A05A2C"/>
<path d="M233.553 425.57H313.911V446.65H233.553V425.57Z" fill="white"/>
<path d="M248.106 472.661L248.179 472.661L248.458 439.54L248.385 439.539L248.33 446.057L181.796 445.443C200.081 455.537 213.356 470.902 248.182 463.594L248.106 472.661Z" fill="#DE8787"/>
<path d="M246.124 472.661L246.051 472.661L245.771 439.54L245.845 439.539L245.9 446.057L312.434 445.443C294.148 455.537 280.874 470.902 246.048 463.594L246.124 472.661Z" fill="#DE8787"/>
<path d="M146.113 295.5V464.648C182.364 490.546 215.557 501.84 246.52 502.465V502.492C246.718 502.49 246.917 502.482 247.115 502.479C247.314 502.482 247.513 502.49 247.711 502.492V502.465C278.673 501.84 311.867 490.545 348.117 464.648V295.5H247.711H246.52H146.113ZM247.115 435.578L304.611 435.76C299.812 451.478 269.87 458.314 247.711 457.68V457.658C247.517 457.666 247.311 457.663 247.115 457.67C246.92 457.663 246.714 457.666 246.52 457.658V457.68C224.36 458.314 194.416 451.479 189.617 435.76L247.115 435.578Z" fill="#FFE1E1"/>
<path d="M196.154 366.03C206.227 366.03 214.393 357.753 214.393 347.542C214.393 337.332 206.227 329.055 196.154 329.055C186.081 329.055 177.915 337.332 177.915 347.542C177.915 357.753 186.081 366.03 196.154 366.03Z" fill="#333333"/>
<path d="M204.141 348.12C207.312 348.12 209.884 345.513 209.884 342.298C209.884 339.083 207.312 336.477 204.141 336.477C200.969 336.477 198.397 339.083 198.397 342.298C198.397 345.513 200.969 348.12 204.141 348.12Z" fill="white"/>
<path d="M246.573 342.531V342.859C242.608 344.126 240.488 346.429 239.129 349.59C229.944 370.953 208.532 413.573 246.574 414.639V414.666C246.759 414.665 246.934 414.656 247.115 414.652C247.297 414.656 247.47 414.665 247.655 414.666V414.639C285.698 413.574 264.285 370.953 255.1 349.59C253.741 346.428 251.622 344.126 247.656 342.859V342.531C247.464 342.579 247.3 342.643 247.115 342.695C246.931 342.643 246.765 342.579 246.573 342.531Z" fill="#FFCFCF"/>
<path d="M298.076 366.03C308.149 366.03 316.315 357.753 316.315 347.542C316.315 337.332 308.149 329.055 298.076 329.055C288.003 329.055 279.837 337.332 279.837 347.542C279.837 357.753 288.003 366.03 298.076 366.03Z" fill="#333333"/>
<path d="M306.062 348.12C309.234 348.12 311.806 345.513 311.806 342.298C311.806 339.083 309.234 336.477 306.062 336.477C302.891 336.477 300.319 339.083 300.319 342.298C300.319 345.513 302.891 348.12 306.062 348.12Z" fill="white"/>
<path d="M247.71 252.383H149.766V284.392H247.71V252.383Z" fill="#B3B3B3"/>
<path d="M247.71 10.0469C237.762 11.2712 228.167 14.5558 219.524 19.6967C210.88 24.8375 203.371 31.7249 197.463 39.931C189.519 36.993 181.132 35.4744 172.675 35.4427C153.285 35.4431 134.69 43.2511 120.979 57.1491C107.269 71.0471 99.5662 89.8968 99.5664 109.551C99.5689 124.161 103.832 138.444 111.819 150.606C119.806 162.767 131.162 172.264 144.458 177.904V256.953H247.71V10.0469Z" fill="#E6E6E6"/>
<path d="M247.71 278.812H144.458V295.724H247.71V278.812Z" fill="#E6E6E6"/>
<path d="M246.519 252.383H344.463V284.392H246.519V252.383Z" fill="#B3B3B3"/>
<path d="M246.519 10.0469C256.467 11.2712 266.062 14.5558 274.705 19.6967C283.349 24.8375 290.858 31.7249 296.766 39.931C304.71 36.993 313.097 35.4744 321.554 35.4427C340.944 35.4431 359.539 43.2511 373.25 57.1491C386.96 71.0471 394.663 89.8968 394.663 109.551C394.66 124.161 390.397 138.444 382.41 150.606C374.423 162.767 363.067 172.264 349.771 177.904V256.953H246.519V10.0469Z" fill="#E6E6E6"/>
<path d="M246.519 278.812H349.771V295.724H246.519V278.812Z" fill="#E6E6E6"/>
<path d="M146.113 372.854V295.727H348.115V372.854C247.114 395.642 247.114 395.058 146.113 372.854Z" fill="#3737FF"/>
<path d="M348.115 372.854C297.944 384.245 272.851 389.795 247.766 389.726V295.727H348.115V372.854Z" fill="#0000FF"/>
<path d="M149.12 295.555C139.367 295.555 125.477 307.721 125.684 322.466C152.459 323.359 137.918 339.06 180.134 339.06C203.712 339.06 232.497 319.685 232.497 295.785C232.496 295.746 232.493 295.707 232.492 295.667L149.12 295.555Z" fill="#D38D5F"/>
<path d="M345.109 295.555C354.863 295.555 368.752 307.721 368.546 322.466C341.77 323.359 356.312 339.06 314.095 339.06C290.517 339.06 261.732 319.685 261.733 295.785C261.734 295.746 261.737 295.707 261.738 295.667L345.109 295.555Z" fill="#D38D5F"/>
</g>
<defs>
<clipPath id="clip0_1204_552">
<rect width="512" height="512" fill="white"/>
</clipPath>
</defs>
</svg>
