<svg width="1693" height="583" viewBox="0 0 1693 583" fill="none" xmlns="http://www.w3.org/2000/svg">
<g clip-path="url(#clip0_1204_590)">
<path d="M90.3035 315.305C65.0953 315.197 50.7766 344.376 51.8204 364.91C1.20442 411.195 35.6147 472.073 89.4633 473.636C121.547 473.636 132.151 443.109 132.151 410.588C132.132 392.766 124.15 375.912 110.443 364.749C111.493 361.185 112.03 357.485 112.037 353.764C112.037 332.422 111.358 315.305 90.3035 315.305Z" fill="#A05A2C"/>
<path d="M272.791 328.197L271.797 333.645C271.251 336.641 270.282 342.825 269.646 347.385C268.683 354.294 267.637 356.183 263.365 358.712C258.366 361.671 258.039 361.657 250.314 358.193C233.308 350.568 233.809 350.457 226.129 363.562C225.289 364.994 224.553 366.254 223.914 367.364C219.444 375.138 219.722 375.709 222.37 378.675C224.064 380.572 228.814 384.621 232.923 387.678C239.527 392.591 240.375 393.949 240.226 399.387C240.078 404.819 238.872 406.512 229.893 413.877C224.301 418.463 219.725 422.624 219.725 423.124C219.725 424.799 231.547 445.488 233.038 446.422C233.849 446.93 239.93 445.128 246.549 442.414C258.245 437.62 258.725 437.56 263.538 440.338C267.634 442.701 268.691 444.626 269.647 451.484C270.283 456.044 271.252 462.231 271.798 465.227L272.794 470.671L286.692 470.671H300.596L302.317 464.386C303.264 460.929 304.052 456.215 304.07 453.91C304.126 446.481 305.79 443.03 310.685 440.182C315.303 437.496 315.888 437.568 326.718 442.251C332.9 444.924 338.727 447.133 339.667 447.158C340.608 447.183 344.107 442.487 347.443 436.725C350.778 430.964 353.521 425.12 353.537 423.737C353.554 422.355 349.171 417.829 343.797 413.68C335.083 406.955 334.013 405.474 333.924 400.013C333.834 394.501 334.817 393.076 343.74 385.766C349.193 381.299 353.657 376.611 353.66 375.349C353.666 373.642 344.719 356.916 341.162 351.981C340.956 351.695 335.006 353.731 327.937 356.514C315.659 361.347 314.877 361.457 310.515 358.845C305.84 356.046 304.124 352.353 304.068 344.956C304.05 342.652 303.264 337.94 302.316 334.483L300.594 328.197L286.69 328.195L272.791 328.195V328.197ZM281.127 378.253C286.652 376.753 292.538 377.539 297.49 380.439C302.443 383.338 306.057 388.112 307.537 393.712C309.018 399.312 308.243 405.279 305.384 410.3C302.525 415.321 297.815 418.985 292.291 420.486C289.555 421.229 286.702 421.419 283.894 421.044C281.086 420.669 278.378 419.738 275.925 418.302C273.472 416.867 271.322 414.956 269.598 412.678C267.874 410.4 266.61 407.801 265.877 405.027C265.143 402.254 264.956 399.362 265.326 396.516C265.696 393.669 266.615 390.925 268.031 388.438C269.447 385.952 271.332 383.773 273.579 382.025C275.826 380.278 278.391 378.996 281.127 378.253Z" fill="#666666"/>
<path d="M205.717 445.195H125.359V466.275H205.717V445.195Z" fill="white"/>
<path d="M191.147 492.286L191.22 492.286L191.499 459.165L191.426 459.164L191.371 465.682L124.837 465.068C143.122 475.162 156.397 490.527 191.223 483.219L191.147 492.286Z" fill="#DE8787"/>
<path d="M190.782 454.916L248.874 454.258C249.232 466.435 213.267 476.467 190.782 477.261V454.916Z" fill="#4D4D4D"/>
<path d="M190.751 315.125V455.491H190.781V454.911L248.873 454.253C249.23 466.423 213.312 476.449 190.824 477.254V488.613H190.751V522.118C227.344 522.534 260.808 507.998 292.349 484.274V315.125H190.751Z" fill="#B3B3B3"/>
<path d="M190.751 315.125V455.202L132.659 455.386C137.543 471.384 168.491 478.2 190.751 477.284V522.118C159.45 521.762 125.869 510.503 89.1533 484.274V315.125H190.751Z" fill="#FFE1E1"/>
<path d="M139.195 385.655C149.268 385.655 157.434 377.378 157.434 367.167C157.434 356.957 149.268 348.68 139.195 348.68C129.122 348.68 120.956 356.957 120.956 367.167C120.956 377.378 129.122 385.655 139.195 385.655Z" fill="#333333"/>
<path d="M147.182 367.745C150.354 367.745 152.925 365.138 152.925 361.923C152.925 358.708 150.354 356.102 147.182 356.102C144.01 356.102 141.438 358.708 141.438 361.923C141.438 365.138 144.01 367.745 147.182 367.745Z" fill="white"/>
<path d="M237.225 385.655C247.298 385.655 255.464 377.378 255.464 367.167C255.464 356.957 247.298 348.68 237.225 348.68C227.152 348.68 218.986 356.957 218.986 367.167C218.986 377.378 227.152 385.655 237.225 385.655Z" fill="#1FDF1F"/>
<path d="M244.009 367.213C247.181 367.213 249.752 364.607 249.752 361.392C249.752 358.177 247.181 355.57 244.009 355.57C240.837 355.57 238.266 358.177 238.266 361.392C238.266 364.607 240.837 367.213 244.009 367.213Z" fill="white"/>
<path d="M190.643 362.158L196.564 362.016L214.867 434.17L190.826 434.292L190.643 362.158Z" fill="#666666"/>
<path d="M190.697 362.156C186.005 363.33 183.651 365.77 182.17 369.214C172.899 390.778 151.157 434.01 190.695 434.29L190.697 362.156Z" fill="#FFCFCF"/>
<path d="M190.751 272.008V304.017H288.696V272.008H190.751Z" fill="#808080"/>
<path d="M190.751 272.008H92.8066V304.017H190.751V272.008Z" fill="#B3B3B3"/>
<path d="M89.0996 393.198V316.07H292.1V393.198C190.6 415.986 190.6 415.401 89.0996 393.198Z" fill="#3737FF"/>
<path d="M292.356 393.198C241.558 404.589 216.151 410.139 190.752 410.069V316.07H292.356V393.198Z" fill="#0000FF"/>
<path d="M199.516 29.0703C196.585 29.094 193.658 29.2963 190.752 29.6761C190.724 95.2908 190.752 200.99 190.752 276.582H293.577V224.99C293.918 222.79 294.222 220.596 294.407 218.851L295.153 211.788L301.565 209.232L307.976 206.674L317.324 214.232C322.466 218.389 327.671 221.792 328.892 221.795C331.946 221.806 353.793 199.301 353.793 196.146C353.793 194.812 350.468 189.459 346.405 184.251L339.019 174.784L341.348 169.341C342.629 166.348 344.01 163.526 344.416 163.072C344.821 162.617 350.862 161.301 357.84 160.147L370.528 158.05L370.848 140.594C371.039 130.17 370.708 122.671 370.025 121.979C369.397 121.342 363.382 119.984 356.661 118.962L344.443 117.107L341.749 110.392L339.058 103.68L346.427 94.1238C350.479 88.8678 353.793 83.7849 353.793 82.8287C353.793 80.7836 330.896 56.8653 328.938 56.8653C328.203 56.8653 323.078 60.322 317.549 64.5496L307.496 72.238L301.336 69.6497L295.372 67.146C295.306 67.1157 295.241 67.0855 295.175 67.0554L293.279 54.7137C292.235 47.9227 290.821 41.6832 290.134 40.8444C289.172 39.6702 281.053 39.1288 272.931 39.1799C264.808 39.231 256.681 39.8713 255.71 41.0577C255.015 41.9063 253.815 46.9615 252.86 52.7433C239.08 37.7049 219.764 29.133 199.516 29.0703Z" fill="#CCCCCC"/>
<path d="M190.751 298.438V315.349H293.576V298.438H190.751Z" fill="#CCCCCC"/>
<path d="M190.751 29.6719C180.803 30.8962 171.208 34.1808 162.565 39.3217C153.921 44.4625 146.412 51.3499 140.504 59.556C132.56 56.618 124.173 55.0994 115.716 55.0677C96.3265 55.0681 77.7308 62.8761 64.0202 76.7741C50.3097 90.6721 42.6072 109.522 42.6074 129.176C42.61 143.786 46.8728 158.069 54.8601 170.231C62.8474 182.392 74.2029 191.889 87.4994 197.529V276.578H190.751V29.6719Z" fill="#E6E6E6"/>
<path d="M190.751 298.438H87.499V315.349H190.751V298.438Z" fill="#E6E6E6"/>
<path d="M92.1613 315.18C82.4078 315.18 68.5181 327.346 68.7249 342.091C95.5004 342.984 80.9588 358.685 123.175 358.685C146.753 358.685 175.538 339.31 175.538 315.41C175.537 315.371 175.534 315.332 175.533 315.292L92.1613 315.18Z" fill="#D38D5F"/>
<path d="M292.537 315.602C302.29 315.602 316.18 327.768 315.973 342.513C289.198 343.406 303.739 359.107 261.523 359.107C237.945 359.106 209.16 339.732 209.16 315.832C209.161 315.793 209.164 315.754 209.165 315.714L292.537 315.602Z" fill="#4D4D4D"/>
<path d="M527.562 433.29C520.488 436.136 513.618 438.25 506.952 439.632C500.366 441.014 493.496 441.705 486.342 441.705C474.878 441.705 464.716 440.038 455.854 436.705C447.073 433.29 439.634 428.25 433.537 421.583C427.521 414.916 422.927 406.664 419.756 396.827C416.667 386.908 415.122 375.404 415.122 362.315C415.122 348.9 416.829 336.989 420.244 326.583C423.659 316.095 428.537 307.274 434.878 300.119C441.22 292.883 448.903 287.395 457.927 283.656C467.033 279.834 477.236 277.924 488.537 277.924C492.196 277.924 495.61 278.005 498.781 278.168C502.033 278.33 505.204 278.656 508.293 279.143C511.383 279.55 514.513 280.119 517.684 280.851C520.854 281.582 524.147 282.517 527.562 283.656V313.412C520.651 310.16 514.066 307.843 507.805 306.461C501.545 305.078 495.854 304.387 490.732 304.387C483.171 304.387 476.708 305.77 471.342 308.534C465.976 311.217 461.545 315.038 458.049 319.997C454.634 324.875 452.114 330.729 450.488 337.558C448.862 344.306 448.049 351.745 448.049 359.875C448.049 368.493 448.862 376.217 450.488 383.046C452.195 389.794 454.797 395.526 458.293 400.242C461.789 404.957 466.261 408.575 471.708 411.095C477.155 413.534 483.618 414.754 491.098 414.754C493.781 414.754 496.667 414.51 499.757 414.022C502.927 413.453 506.098 412.762 509.269 411.949C512.521 411.055 515.692 410.038 518.781 408.9C521.952 407.681 524.879 406.461 527.562 405.242V433.29Z" fill="#666666"/>
<path d="M633.904 425.973C629.595 436.705 625.082 446.095 620.367 454.144C615.733 462.274 610.611 469.022 605.001 474.388C599.391 479.835 593.131 483.9 586.22 486.583C579.391 489.348 571.708 490.73 563.172 490.73C561.139 490.73 558.903 490.608 556.464 490.364C554.106 490.201 551.667 489.917 549.147 489.51V464.266C550.123 464.429 551.22 464.591 552.44 464.754C553.741 464.998 555.082 465.161 556.464 465.242C557.846 465.404 559.228 465.526 560.611 465.608C562.074 465.689 563.415 465.73 564.635 465.73C568.05 465.73 571.22 465.079 574.147 463.778C577.074 462.478 579.757 460.648 582.196 458.291C584.716 456.014 586.993 453.25 589.025 449.998C591.058 446.827 592.847 443.331 594.391 439.51L545.245 315.607H578.416L604.147 385.851L611.83 408.534L619.391 386.827L645.367 315.607H677.318L633.904 425.973Z" fill="#666666"/>
<path d="M808.173 375.363C808.173 386.746 806.547 396.583 803.295 404.876C800.124 413.168 795.652 420.079 789.88 425.607C784.189 431.055 777.441 435.12 769.636 437.803C761.831 440.404 753.335 441.705 744.148 441.705C735.124 441.705 726.709 441.014 718.904 439.632C711.18 438.331 703.782 436.543 696.709 434.266V267.192H726.465V307.68L725.246 332.07C729.717 326.298 734.92 321.664 740.855 318.168C746.872 314.672 754.067 312.924 762.441 312.924C769.758 312.924 776.262 314.387 781.953 317.314C787.644 320.241 792.4 324.428 796.221 329.875C800.124 335.241 803.091 341.786 805.124 349.51C807.157 357.152 808.173 365.77 808.173 375.363ZM776.953 376.583C776.953 369.754 776.465 363.941 775.49 359.144C774.514 354.347 773.091 350.404 771.221 347.314C769.433 344.225 767.197 341.989 764.514 340.607C761.912 339.144 758.904 338.412 755.49 338.412C750.449 338.412 745.611 340.444 740.977 344.51C736.424 348.575 731.587 354.103 726.465 361.095V415.242C728.823 416.136 731.709 416.868 735.124 417.437C738.62 418.006 742.156 418.29 745.733 418.29C750.449 418.29 754.717 417.315 758.538 415.364C762.441 413.412 765.734 410.648 768.417 407.071C771.181 403.494 773.295 399.144 774.758 394.022C776.221 388.819 776.953 383.006 776.953 376.583Z" fill="#666666"/>
<path d="M941.954 368.046C941.954 370.079 941.873 372.721 941.71 375.973C941.629 379.225 941.466 382.274 941.222 385.119H859.758C859.758 390.567 860.571 395.363 862.197 399.51C863.905 403.656 866.263 407.152 869.271 409.998C872.36 412.762 876.019 414.876 880.246 416.339C884.555 417.803 889.311 418.534 894.515 418.534C900.531 418.534 906.954 418.087 913.783 417.193C920.694 416.217 927.848 414.672 935.247 412.559V436.217C932.076 437.112 928.621 437.925 924.881 438.656C921.141 439.388 917.32 440.038 913.417 440.608C909.515 441.177 905.572 441.583 901.588 441.827C897.604 442.152 893.742 442.315 890.002 442.315C880.572 442.315 872.116 440.973 864.636 438.29C857.157 435.608 850.815 431.664 845.612 426.461C840.409 421.177 836.425 414.672 833.661 406.949C830.896 399.225 829.514 390.282 829.514 380.119C829.514 370.038 830.896 360.892 833.661 352.68C836.425 344.388 840.327 337.314 845.368 331.461C850.409 325.526 856.506 320.973 863.661 317.802C870.897 314.55 878.945 312.924 887.807 312.924C896.588 312.924 904.352 314.306 911.1 317.07C917.848 319.753 923.499 323.534 928.051 328.412C932.604 333.29 936.06 339.103 938.417 345.851C940.775 352.599 941.954 359.997 941.954 368.046ZM911.71 363.778C911.791 358.9 911.181 354.672 909.881 351.095C908.58 347.436 906.791 344.428 904.515 342.071C902.32 339.713 899.718 337.965 896.71 336.827C893.783 335.688 890.612 335.119 887.198 335.119C879.718 335.119 873.58 337.64 868.783 342.68C863.986 347.64 861.141 354.672 860.246 363.778H911.71Z" fill="#666666"/>
<path d="M1051.1 363.778C1051.26 359.144 1051.02 355.201 1050.37 351.949C1049.8 348.697 1048.82 346.014 1047.44 343.9C1046.14 341.786 1044.52 340.241 1042.56 339.266C1040.61 338.29 1038.38 337.802 1035.86 337.802C1031.47 337.802 1026.91 339.631 1022.2 343.29C1017.56 346.867 1012.44 352.802 1006.83 361.095V439.51H976.344V315.607H1003.3L1004.39 333.656C1006.43 330.485 1008.7 327.64 1011.22 325.119C1013.82 322.599 1016.67 320.444 1019.76 318.656C1022.93 316.786 1026.43 315.363 1030.25 314.387C1034.07 313.412 1038.26 312.924 1042.81 312.924C1049.07 312.924 1054.6 314.022 1059.39 316.217C1064.27 318.331 1068.34 321.501 1071.59 325.729C1074.92 329.957 1077.36 335.282 1078.91 341.705C1080.53 348.046 1081.22 355.404 1080.98 363.778H1051.1Z" fill="#666666"/>
<path d="M1214.15 433.29C1207.08 436.136 1200.21 438.25 1193.54 439.632C1186.96 441.014 1180.09 441.705 1172.93 441.705C1161.47 441.705 1151.3 440.038 1142.44 436.705C1133.66 433.29 1126.22 428.25 1120.13 421.583C1114.11 414.916 1109.52 406.664 1106.34 396.827C1103.26 386.908 1101.71 375.404 1101.71 362.315C1101.71 348.9 1103.42 336.989 1106.83 326.583C1110.25 316.095 1115.13 307.274 1121.47 300.119C1127.81 292.883 1135.49 287.395 1144.52 283.656C1153.62 279.834 1163.82 277.924 1175.13 277.924C1178.78 277.924 1182.2 278.005 1185.37 278.168C1188.62 278.33 1191.79 278.656 1194.88 279.143C1197.97 279.55 1201.1 280.119 1204.27 280.851C1207.44 281.582 1210.74 282.517 1214.15 283.656V313.412C1207.24 310.16 1200.65 307.843 1194.39 306.461C1188.13 305.078 1182.44 304.387 1177.32 304.387C1169.76 304.387 1163.3 305.77 1157.93 308.534C1152.56 311.217 1148.13 315.038 1144.64 319.997C1141.22 324.875 1138.7 330.729 1137.08 337.558C1135.45 344.306 1134.64 351.745 1134.64 359.875C1134.64 368.493 1135.45 376.217 1137.08 383.046C1138.78 389.794 1141.39 395.526 1144.88 400.242C1148.38 404.957 1152.85 408.575 1158.3 411.095C1163.74 413.534 1170.21 414.754 1177.69 414.754C1180.37 414.754 1183.26 414.51 1186.35 414.022C1189.52 413.453 1192.69 412.762 1195.86 411.949C1199.11 411.055 1202.28 410.038 1205.37 408.9C1208.54 407.681 1211.47 406.461 1214.15 405.242V433.29Z" fill="#666666"/>
<path d="M1319.88 439.51V358.778C1319.88 345.201 1314.84 338.412 1304.76 338.412C1299.72 338.412 1294.88 340.444 1290.25 344.51C1285.7 348.575 1280.86 354.103 1275.74 361.095V439.51H1245.98V267.192H1275.74V309.631L1274.27 332.07C1276.79 329.062 1279.35 326.379 1281.96 324.022C1284.56 321.583 1287.36 319.55 1290.37 317.924C1293.38 316.298 1296.63 315.078 1300.13 314.265C1303.62 313.371 1307.48 312.924 1311.71 312.924C1318.05 312.924 1323.58 313.981 1328.3 316.095C1333.01 318.127 1336.96 321.054 1340.13 324.875C1343.3 328.615 1345.66 333.168 1347.2 338.534C1348.83 343.818 1349.64 349.753 1349.64 356.339V439.51H1319.88Z" fill="#666666"/>
<path d="M1491.22 368.046C1491.22 370.079 1491.14 372.721 1490.98 375.973C1490.9 379.225 1490.74 382.274 1490.49 385.119H1409.03C1409.03 390.567 1409.84 395.363 1411.47 399.51C1413.18 403.656 1415.53 407.152 1418.54 409.998C1421.63 412.762 1425.29 414.876 1429.52 416.339C1433.83 417.803 1438.58 418.534 1443.79 418.534C1449.8 418.534 1456.22 418.087 1463.05 417.193C1469.96 416.217 1477.12 414.672 1484.52 412.559V436.217C1481.35 437.112 1477.89 437.925 1474.15 438.656C1470.41 439.388 1466.59 440.038 1462.69 440.608C1458.79 441.177 1454.84 441.583 1450.86 441.827C1446.88 442.152 1443.01 442.315 1439.27 442.315C1429.84 442.315 1421.39 440.973 1413.91 438.29C1406.43 435.608 1400.09 431.664 1394.88 426.461C1389.68 421.177 1385.7 414.672 1382.93 406.949C1380.17 399.225 1378.79 390.282 1378.79 380.119C1378.79 370.038 1380.17 360.892 1382.93 352.68C1385.7 344.388 1389.6 337.314 1394.64 331.461C1399.68 325.526 1405.78 320.973 1412.93 317.802C1420.17 314.55 1428.22 312.924 1437.08 312.924C1445.86 312.924 1453.62 314.306 1460.37 317.07C1467.12 319.753 1472.77 323.534 1477.32 328.412C1481.88 333.29 1485.33 339.103 1487.69 345.851C1490.05 352.599 1491.22 359.997 1491.22 368.046ZM1460.98 363.778C1461.06 358.9 1460.45 354.672 1459.15 351.095C1457.85 347.436 1456.06 344.428 1453.79 342.071C1451.59 339.713 1448.99 337.965 1445.98 336.827C1443.05 335.688 1439.88 335.119 1436.47 335.119C1428.99 335.119 1422.85 337.64 1418.05 342.68C1413.26 347.64 1410.41 354.672 1409.52 363.778H1460.98Z" fill="#666666"/>
<path d="M1631.84 292.436C1628.26 291.298 1623.99 290.363 1619.03 289.631C1614.15 288.818 1609.15 288.412 1604.03 288.412C1600.53 288.412 1597.28 288.9 1594.27 289.875C1591.27 290.769 1588.66 292.233 1586.47 294.265C1584.27 296.298 1582.53 298.9 1581.23 302.07C1580.01 305.16 1579.4 308.94 1579.4 313.412V333.412H1628.05V356.583H1579.4V439.51H1549.4V356.583H1513.42V333.412H1549.4V314.631C1549.4 305.851 1550.66 298.33 1553.18 292.07C1555.78 285.729 1559.4 280.566 1564.03 276.582C1568.75 272.517 1574.4 269.55 1580.98 267.68C1587.57 265.81 1594.92 264.875 1603.05 264.875C1608.42 264.875 1613.5 265.241 1618.3 265.973C1623.18 266.623 1627.69 267.436 1631.84 268.412V292.436Z" fill="#666666"/>
</g>
<defs>
<clipPath id="clip0_1204_590">
<rect width="1692.69" height="582.389" fill="white"/>
</clipPath>
</defs>
</svg>
